<svg 
          width="21.802921295166016" 
          height="17.67441749572754" fill="none" 
          xmlns="http://www.w3.org/2000/svg">
          <path d="M 0.7892658744541613 0.5789492470492414 C 1.2950936339469927 0.15509613187747978 1.9753836583797368 -0.051741866871545604 2.651235255631816 0.01105923401303264 C 5.389682113272752 0.2686849950540741 8.145571528948494 0.39840511089324204 10.901304997978775 0.39840511089324204 C 13.657038467009055 0.39840511089324204 16.41316046596746 0.2685328823212454 19.15176297321263 0.01105923401303264 C 19.82761457046471 -0.051756356265601385 20.507907268268518 0.15508165975326194 21.01373502776135 0.5789492470492414 C 21.515163272474574 1.0008103900303362 21.802921295166016 1.6052077449771252 21.802921295166016 2.233906870516772 L 21.802921295166016 12.922409090541072 C 21.802921295166016 13.545023706767571 21.52171585347573 14.14547328037373 21.03320192177489 14.567189563953944 C 20.54699678016014 14.98905070693504 19.88632825970087 15.206101674462035 19.225816539880597 15.159417347639623 C 17.52308620915392 15.045813996148338 15.575929264904648 14.995163627290376 13.600662417988394 14.984979273554556 L 13.600662417988394 16.6603270838547 L 15.227198405906426 16.6603270838547 C 15.528024219100498 16.6603270838547 15.772271438285577 16.88753378683727 15.772271438285577 17.167371737156305 C 15.772271438285577 17.44720968747534 15.528024219100498 17.67441749572754 15.227198405906426 17.67441749572754 L 6.575721701094674 17.67441749572754 C 6.274895887900601 17.67441749572754 6.030648668715523 17.44720968747534 6.030648668715523 17.167371737156305 C 6.030648668715523 16.88753378683727 6.274895887900601 16.6603270838547 6.575721701094674 16.6603270838547 L 8.202258877177623 16.6603270838547 L 8.202258877177623 14.984979273554556 C 6.2269920302613695 14.995165438464634 4.27967958492848 15.045813996148338 2.57710505232665 15.159417347639623 C 1.9164376086418349 15.206105296810549 1.2557705733887101 14.989083312389123 0.7697211556385031 14.567189563953944 C 0.2812189199360741 14.145437048253672 0 13.545023706767571 0 12.922409090541072 L 0 2.233906870516772 C 0 1.6052077449771252 0.2877441731441196 1.0008103900303362 0.7893047868552199 0.5789492470492414 L 0.7892658744541613 0.5789492470492414 Z M 9.292404941935924 16.66023313593615 L 12.510516353230093 16.66023313593615 L 12.510516353230093 14.984885325636006 C 11.971984205853689 14.984885325636006 11.433451909956668 14.98898804116924 10.901460647583008 14.995071490546083 C 10.369469385209348 14.98898804116924 9.830937089312329 14.984885325636006 9.292404941935924 14.984885325636006 L 9.292404941935924 16.66023313593615 Z M 1.090223889560418 12.922227826321752 C 1.090223889560418 13.268981166008766 1.2406367497447621 13.589570925681027 1.5131615885010044 13.824839638043194 C 1.7812869124776398 14.058130884878588 2.1324422776859007 14.17371558545146 2.498653493215378 14.149381064769623 C 5.014749544465563 13.97890541684778 8.014791998691571 13.946504575803047 10.901343019256144 13.976923633861517 C 13.788088601826011 13.9465067496439 16.788131947175707 13.978904933292318 19.3040334364206 14.149381064769623 C 19.67025244928235 14.173714499610396 20.021429052938515 14.058130884878588 20.28952712338235 13.824839638043194 C 20.562063639571925 13.589567299015053 20.71246393119925 13.268973947216494 20.71246393119925 12.922227826321752 L 20.71246393119925 2.2337256062974524 C 20.71246393119925 1.884849907143107 20.559921118314023 1.5644267668675693 20.28298508734484 1.33111379457601 C 20.00177801192779 1.0958414555478688 19.635399636446436 0.9843605628254829 19.26050620282123 1.020860533753345 C 16.48709670134979 1.2825897464544638 13.694141589939008 1.4123350859713502 10.901031720047676 1.4123350859713502 C 8.107921850156345 1.4123350859713502 5.3152016983580594 1.2824629858437733 2.5419478464908547 1.020860533753345 C 2.166906449203225 0.9843605628254829 1.8006877148176272 1.0958414555478688 1.5194689619672448 1.33111379457601 C 1.242369409801248 1.5644050414114046 1.089834468508603 1.884987547751718 1.089834468508603 2.2337256062974524 L 1.090223889560418 12.922227826321752 Z" fill="rgb(0,0,0)"/>
        </svg>